<svg xmlns="http://www.w3.org/2000/svg" xmlns:xlink="http://www.w3.org/1999/xlink" id="Layer_1" width="34" height="152" x="0" y="0" enable-background="new 0 0 34 152" version="1.1" viewBox="0 0 34 152" xml:space="preserve"><path fill="#030000" d="M33.768,135.583c0,9.324-7.56,16.884-16.884,16.884l0,0C7.559,152.467,0,144.907,0,135.583V16.886	C0,7.559,7.559,0,16.884,0l0,0c9.325,0,16.884,7.559,16.884,16.886V135.583z"/><path fill="#FFF" d="M11.31,104.325c0,1.801-1.462,3.264-3.267,3.264l0,0c-1.804,0-3.267-1.463-3.267-3.264V72.474	c0-1.807,1.463-3.268,3.267-3.268l0,0c1.805,0,3.267,1.461,3.267,3.268V104.325z"/><path fill="#FFF" d="M11.088,59.067c0,1.706-1.363,3.086-3.045,3.086l0,0c-1.682,0-3.046-1.38-3.046-3.086V47.494	c0-1.705,1.364-3.085,3.046-3.085l0,0c1.683,0,3.045,1.38,3.045,3.085V59.067z"/><path fill="#FFF" d="M11.172,128.729c0,1.728-1.511,3.129-3.373,3.129l0,0c-1.863,0-3.372-1.401-3.372-3.129v-7.821	c0-1.724,1.509-3.128,3.372-3.128l0,0c1.862,0,3.373,1.404,3.373,3.128V128.729z"/></svg>